<svg width="50" height="52" viewBox="0 0 50 52" fill="none" xmlns="http://www.w3.org/2000/svg">
<path d="M45.4792 1.02039H39.2144C37.2814 1.02039 35.7142 2.58743 35.7142 4.52059V10.7854C35.7142 12.7185 37.2814 14.2857 39.2144 14.2857H45.4792C47.4124 14.2857 48.9795 12.7185 48.9795 10.7854V4.52059C48.9795 2.58743 47.4124 1.02039 45.4792 1.02039Z" fill="white"/>
<path d="M20.9457 14.6591H26.447C28.7234 14.7884 30.889 15.6853 32.5902 17.2035L32.7965 17.4327C34.3225 19.129 35.2206 21.2973 35.3408 23.5759V29.0543C35.3408 30.0087 35.72 30.9241 36.3949 31.599C37.0698 32.2739 37.9852 32.653 38.9397 32.653H45.3808C46.3352 32.653 47.2506 32.2739 47.9255 31.599C48.6004 30.9241 48.9796 30.0087 48.9796 29.0543V22.6131C48.9796 21.6587 48.6004 20.7433 47.9255 20.0684C47.2506 19.3936 46.3352 19.0144 45.3808 19.0144H39.9023C37.6239 18.8941 35.4555 17.996 33.7592 16.47L33.53 16.2637C32.0088 14.5644 31.1114 12.3978 30.9856 10.1205V4.61916C30.9856 3.66477 30.6065 2.74937 29.9316 2.07447C29.2566 1.39957 28.3413 1.02039 27.3868 1.02039H20.9457C19.9912 1.02039 19.0759 1.39957 18.401 2.07447C17.7261 2.74937 17.3469 3.66477 17.3469 4.61916V11.0604C17.3469 12.0148 17.7261 12.9301 18.401 13.605C19.0759 14.2799 19.9912 14.6591 20.9457 14.6591Z" fill="white"/>
<path d="M46.4123 37.2111H40.9628C38.6943 37.0639 36.5449 36.1228 34.8773 34.5465L34.2643 33.921C32.7527 32.2063 31.863 30.0145 31.7439 27.7113V22.1505C31.7379 21.1877 31.3604 20.2659 30.6932 19.585C30.0258 18.9041 29.1226 18.5189 28.1789 18.5129H22.7293C20.4795 18.4162 18.3308 17.5327 16.644 16.0105L16.0309 15.3849C14.5192 13.6703 13.6296 11.4785 13.5104 9.17531V3.63775C13.5104 2.67296 13.1348 1.74766 12.4663 1.06541C11.7978 0.383267 10.891 0 9.94551 0H3.5649C2.61949 0 1.71265 0.383267 1.04418 1.06541C0.375612 1.74766 0 2.67296 0 3.63775V10.1485C0 11.1133 0.375612 12.0386 1.04418 12.7207C1.71265 13.403 2.61949 13.7862 3.5649 13.7862H8.99183C11.2834 13.8932 13.467 14.8106 15.1681 16.3812L15.7811 17.0068C17.2881 18.7245 18.1769 20.9145 18.3015 23.2163V28.7772C18.3074 29.7401 18.685 30.6618 19.3522 31.3427C20.0195 32.0236 20.9229 32.4088 21.8664 32.4149H27.316C29.5482 32.5575 31.668 33.4635 33.3334 34.9867L33.9464 35.6124C35.4534 37.33 36.3422 39.5201 36.4668 41.8219V47.3828C36.4728 48.3457 36.8503 49.2674 37.5176 49.9483C38.1848 50.6292 39.0882 51.0143 40.0317 51.0204H46.435C47.3787 51.0143 48.282 50.6292 48.9493 49.9483C49.6165 49.2674 49.9941 48.3457 50 47.3828V40.8488C49.994 39.8819 49.6134 38.9566 48.9412 38.2751C48.2691 37.5936 47.3599 37.211 46.4123 37.2111Z" fill="white"/>
<path d="M10.5162 36.7347H3.76949C1.68765 36.7347 0 38.3018 0 40.235V46.4998C0 48.4329 1.68765 50 3.76949 50H10.5162C12.5981 50 14.2857 48.4329 14.2857 46.4998V40.235C14.2857 38.3018 12.5981 36.7347 10.5162 36.7347Z" fill="white"/>
<path d="M28.0339 36.3612H22.5554C20.2769 36.2409 18.1086 35.3429 16.4122 33.8169L16.1831 33.6106C14.6521 31.8993 13.7542 29.7149 13.6387 27.4216V21.9203C13.6273 20.9933 13.2588 20.1065 12.6097 19.4446C11.9606 18.7827 11.0811 18.3968 10.1545 18.3673H3.59877C2.64428 18.3673 1.72898 18.7465 1.05408 19.4214C0.379181 20.0963 0 21.0116 0 21.9661V28.4072C0 29.3617 0.379181 30.277 1.05408 30.952C1.72898 31.6269 2.64428 32.006 3.59877 32.006H9.1001C11.3765 32.1354 13.542 33.0322 15.2433 34.5504L15.4496 34.7796C16.9756 36.4759 17.8737 38.6443 17.9939 40.9227V46.4011C17.9939 46.8757 18.0878 47.3455 18.27 47.7835C18.4523 48.2217 18.7195 48.6195 19.0561 48.9539C19.3927 49.2884 19.7921 49.553 20.2314 49.7325C20.6707 49.912 21.1411 50.0029 21.6156 49.9999H28.0339C28.9883 49.9999 29.9037 49.6208 30.5786 48.9459C31.2535 48.271 31.6326 47.3556 31.6326 46.4011V39.96C31.6326 39.0056 31.2535 38.0902 30.5786 37.4153C29.9037 36.7404 28.9883 36.3612 28.0339 36.3612Z" fill="white"/>
</svg>
