<svg width="16" height="14" viewBox="0 0 16 14" fill="none" xmlns="http://www.w3.org/2000/svg">
<path d="M14.7891 6.89065L8.35317 0.459399C8.30683 0.412968 8.25179 0.376131 8.1912 0.350998C8.1306 0.325864 8.06565 0.312927 8.00005 0.312927C7.93445 0.312927 7.86949 0.325864 7.8089 0.350998C7.7483 0.376131 7.69326 0.412968 7.64692 0.459399L1.21099 6.89065C1.02349 7.07815 0.917236 7.33284 0.917236 7.59846C0.917236 8.15002 1.36567 8.59846 1.91724 8.59846H2.59536V13.1875C2.59536 13.4641 2.8188 13.6875 3.09536 13.6875H7.00005V10.1875H8.75005V13.6875H12.9047C13.1813 13.6875 13.4047 13.4641 13.4047 13.1875V8.59846H14.0829C14.3485 8.59846 14.6032 8.49377 14.7907 8.30471C15.1797 7.91409 15.1797 7.28127 14.7891 6.89065Z" fill="white"/>
</svg>
