<svg width="16" height="14" viewBox="0 0 16 14" fill="none" xmlns="http://www.w3.org/2000/svg">
<path d="M10.6667 3.3332C10.6667 3.16094 10.5972 2.99414 10.4722 2.87109L7.75278 0.191406C7.62778 0.0683594 7.45833 0 7.28056 0H7.11111V3.5H10.6667V3.3332ZM15.8611 8.42188L13.2028 5.78594C12.9222 5.50977 12.4417 5.70391 12.4417 6.09492V7.875H10.6639V9.625H12.4417V11.4078C12.4417 11.7988 12.9222 11.993 13.2028 11.7168L15.8611 9.07812C16.0444 8.89766 16.0444 8.60234 15.8611 8.42188ZM5.33333 9.1875V8.3125C5.33333 8.07187 5.53333 7.875 5.77778 7.875H10.6667V4.375H6.88889C6.52222 4.375 6.22222 4.07969 6.22222 3.71875V0H0.666667C0.297222 0 0 0.292578 0 0.65625V13.3438C0 13.7074 0.297222 14 0.666667 14H10C10.3694 14 10.6667 13.7074 10.6667 13.3438V9.625H5.77778C5.53333 9.625 5.33333 9.42813 5.33333 9.1875Z" fill="white"/>
</svg>
