<svg width="16" height="15" viewBox="0 0 16 15" fill="none" xmlns="http://www.w3.org/2000/svg">
<path d="M6.91659 12.75C8.32178 12.7498 9.68647 12.2793 10.7934 11.4137L14.2735 14.8939L15.393 13.7745L11.9128 10.2943C12.7789 9.18728 13.2496 7.82226 13.2499 6.41671C13.2499 2.92467 10.4086 0.083374 6.91659 0.083374C3.42454 0.083374 0.583252 2.92467 0.583252 6.41671C0.583252 9.90875 3.42454 12.75 6.91659 12.75ZM6.91659 1.66671C9.53621 1.66671 11.6666 3.79708 11.6666 6.41671C11.6666 9.03633 9.53621 11.1667 6.91659 11.1667C4.29696 11.1667 2.16659 9.03633 2.16659 6.41671C2.16659 3.79708 4.29696 1.66671 6.91659 1.66671Z" fill="#C01B27"/>
</svg>
